# xmcd
#
# Track frame offsets: 
#        150
#        14988
#        32666
#        50297
#        68321
#        84033
#        101283
#        114770
#        127381
#        140611
#        158518
#        176868
#        193980
#        207813
#        224501
#        239811
#        257293
#        273987
#        286648
#        306498
#
# Disc length: 4302 seconds
#
# Revision: 0
# Processed by: cddbd v1.5.2PL0 Copyright (c) Steve Scherf et al.
# Submitted via: ExactAudioCopy v0.99pb3
#
DISCID=1f10cc14
DTITLE=Δημήτρης Μητροπάνος - Η Ζωή Μου Ένα Τραγούδι [CD 1)
DYEAR=2007
DGENRE=
TTITLE0=Σ'Αναζητώ Στη Σαλονίκη
TTITLE1=Δίδυμα Φεγγάρια
TTITLE2=Έρχονται Βράδυα
TTITLE3=Ένα Σημάδι
TTITLE4=Θα Ζήσω Και Χωρίς Εσένα
TTITLE5=Καζαμπλάνκα
TTITLE6=Ζήτω Ο Χωρισμός
TTITLE7=Εσύ Βαρέθηκες Νωρίς
TTITLE8=Μ'Ένα Τσιγάρο Σέρτικο
TTITLE9=Θάλασσες
TTITLE10=Κόσμε Μου 'Γινες Πληγή
TTITLE11=Η Εθνική Μας Μοναξιά
TTITLE12=Θα Κουραστείς Να Παίζεις Θέατρο
TTITLE13=Εσύ Λέγε Με Έρωτα
TTITLE14=Κράτα Καρδιά Μου Ενός Λεπτού Σιγή
TTITLE15=Πάντα Γελαστοί
TTITLE16=Μια Στάση Εδώ
TTITLE17=Παρέα Μ' Έναν Ήλιο
TTITLE18=Πεθαμένες Καλησπέρες
TTITLE19=Σου 'Χα Πει Πως Πέφτεις Έξω
EXTD=
EXTT0=
EXTT1=
EXTT2=
EXTT3=
EXTT4=
EXTT5=
EXTT6=
EXTT7=
EXTT8=
EXTT9=
EXTT10=
EXTT11=
EXTT12=
EXTT13=
EXTT14=
EXTT15=
EXTT16=
EXTT17=
EXTT18=
EXTT19=
PLAYORDER=
